<svg width="512" height="512" viewBox="0 0 512 512" fill="none" xmlns="http://www.w3.org/2000/svg">
  <rect width="512" height="512" fill="#A6093D"/>
  <path
      d="M258.369 120.872V88.884C258.369 83.2861 254.815 80.887 250.076 82.4864C250.076 82.4864 141.478 127.269 141.083 127.669C136.344 130.468 132 137.266 132 143.263V421.958C132 427.556 135.554 430.355 140.293 428.356C140.293 428.356 226.382 392.769 245.338 384.772V143.263C245.733 134.467 250.866 125.27 258.369 120.872ZM197.554 124.87C201.898 123.271 204.268 124.471 204.268 126.87C204.268 132.068 199.924 150.461 199.924 152.46C199.529 154.059 198.739 154.459 197.554 154.859C196.369 155.259 195.185 155.659 195.185 154.059C194.79 152.46 190.446 136.866 190.446 131.668C190.446 128.869 192.42 126.47 197.554 124.87ZM197.159 166.055C202.293 163.256 206.637 166.055 206.637 172.452C206.637 178.45 202.293 185.647 197.159 188.446C192.025 191.245 187.682 188.446 187.682 182.049C187.682 175.651 192.025 168.854 197.159 166.055ZM217.694 253.622C212.955 253.622 203.478 256.021 197.159 258.82C190.446 261.619 181.363 266.817 176.624 270.815C178.599 266.017 178.599 260.019 176.624 256.821C181.363 256.821 190.841 255.221 197.159 252.422C203.873 249.623 212.955 244.025 217.694 240.027C215.72 244.425 215.72 250.423 217.694 253.622ZM204.268 281.211C204.268 286.409 199.924 305.202 199.924 306.802C199.529 308.401 198.739 308.801 197.554 309.201C196.369 309.601 195.185 310.4 195.185 308.801C194.79 307.201 190.446 291.607 190.446 286.809C190.446 284.01 192.815 281.611 197.554 279.612C201.898 278.013 204.268 278.812 204.268 281.211ZM190.446 228.031C190.446 222.833 194.79 204.04 195.185 202.041C195.58 200.442 196.369 200.042 197.554 199.642C198.739 199.242 199.924 198.842 199.924 200.042C200.318 201.641 204.268 217.235 204.268 222.034C204.268 224.433 201.898 227.232 197.554 228.831C192.42 231.23 190.446 230.83 190.446 228.031ZM166.357 154.059C168.726 151.66 170.701 151.26 171.885 152.06C174.255 154.059 180.573 162.456 181.363 163.256C182.153 164.056 180.573 164.855 180.178 165.655C179.389 166.055 178.204 167.254 177.414 166.855C176.624 166.455 166.752 161.257 164.382 159.257C163.197 158.458 163.592 156.458 166.357 154.059ZM173.07 191.245C173.465 192.045 171.49 193.245 171.49 193.245C170.701 194.044 168.331 195.644 167.541 196.443C166.752 196.843 165.172 198.043 165.962 195.244C166.752 191.245 166.752 186.847 166.752 186.847C166.752 186.847 166.752 182.848 165.962 179.25C165.567 177.251 166.752 176.851 167.541 176.851C168.331 176.851 170.701 176.851 171.49 176.851C171.49 176.851 173.465 176.851 173.07 178.05C172.675 179.25 172.675 183.248 172.28 184.448C172.28 186.447 172.675 190.046 173.07 191.245ZM164.382 219.235C166.752 215.636 176.624 202.841 177.414 202.041C178.204 200.842 179.389 201.242 180.178 201.242C180.968 201.242 182.153 201.641 181.363 202.841C180.573 204.04 174.255 217.235 171.885 220.834C170.701 222.833 168.726 223.633 166.357 223.233C163.592 222.434 163.197 221.234 164.382 219.235ZM181.363 358.782C180.573 359.982 174.255 373.576 171.885 377.575C170.701 379.574 168.726 380.774 166.357 380.374C163.592 379.974 163.197 378.774 164.382 376.775C166.752 372.777 176.624 359.582 177.414 358.382C178.204 357.183 179.389 357.582 180.178 357.582C180.968 357.582 182.153 357.582 181.363 358.782ZM165.962 337.19C165.567 335.191 166.752 334.791 167.541 334.791C168.331 334.791 170.701 334.791 171.49 334.791C171.49 334.791 173.465 334.391 173.07 335.991C172.675 337.19 172.675 341.189 172.28 342.388C172.28 343.588 172.28 347.586 173.07 348.386C173.465 349.186 171.49 350.785 171.49 350.785C170.701 351.585 168.331 353.584 167.541 354.384C166.752 355.183 165.172 355.983 165.962 353.584C166.752 349.585 166.752 345.187 166.752 345.187C166.752 345.187 166.752 340.389 165.962 337.19ZM180.178 321.996C179.389 322.796 178.204 323.995 177.414 323.595C176.624 323.195 166.752 318.797 164.382 317.198C163.197 316.398 163.592 314.399 166.357 311.6C168.726 309.201 170.701 308.401 171.885 309.201C174.255 311.2 180.573 318.797 181.363 319.597C182.153 320.396 180.968 321.596 180.178 321.996ZM197.554 384.372C192.42 386.771 190.446 386.372 190.446 383.573C190.446 378.375 194.79 359.182 195.185 357.582C195.58 355.983 196.369 355.583 197.554 354.783C198.739 354.384 199.924 353.584 199.924 355.183C200.318 356.783 204.268 371.977 204.268 376.775C204.268 379.574 201.898 382.373 197.554 384.372ZM197.159 342.388C192.025 345.187 187.682 342.388 187.682 336.39C187.682 330.393 192.025 323.195 197.159 320.796C202.293 317.997 206.637 320.796 206.637 326.794C206.637 332.792 202.688 339.989 197.159 342.388ZM227.962 351.585C225.592 353.984 223.618 354.784 222.433 353.984C220.064 352.384 213.745 344.787 212.955 343.988C212.166 343.188 213.745 341.988 214.14 341.588C214.93 340.789 216.115 339.589 216.904 339.989C217.694 340.389 227.567 344.387 229.936 345.987C231.516 347.186 230.726 348.786 227.962 351.585ZM220.854 314.399C220.459 313.599 222.433 312 222.433 312C223.223 311.2 225.592 309.201 226.382 308.801C227.172 308.001 228.752 307.201 227.962 309.601C227.172 313.599 227.172 317.598 227.172 317.598C227.172 317.598 227.172 321.996 227.962 324.795C228.752 326.794 227.172 327.194 226.382 327.194C225.592 327.194 223.223 327.194 222.433 327.594C222.433 327.594 220.459 327.994 220.854 326.794C221.248 325.595 221.643 321.996 221.643 320.396C221.643 318.797 221.248 315.198 220.854 314.399ZM229.936 288.409C227.567 292.407 217.694 305.202 216.904 306.402C216.115 307.601 214.93 307.201 214.14 307.201C213.35 307.201 212.166 307.201 212.955 306.002C213.745 304.802 220.064 291.607 222.433 287.609C223.618 285.61 225.592 284.81 227.962 284.81C230.726 285.21 231.516 286.409 229.936 288.409ZM227.962 199.242C225.592 201.641 223.618 202.041 222.433 201.242C220.064 199.242 213.745 191.245 212.955 190.446C212.166 189.646 213.745 188.846 214.14 188.047C214.93 187.647 216.115 186.047 216.904 186.847C217.694 187.247 227.567 192.045 229.936 194.044C231.516 195.244 230.726 196.843 227.962 199.242ZM220.854 161.257C220.459 160.457 222.433 159.257 222.433 159.257C223.223 158.458 225.592 156.858 226.382 156.059C227.172 155.659 228.752 154.459 227.962 156.858C227.172 160.457 227.172 164.455 227.172 164.455C227.172 164.455 227.172 168.854 227.962 172.053C228.752 174.052 227.172 174.052 226.382 174.052C225.592 174.052 223.223 174.052 222.433 174.052C222.433 174.052 220.459 174.052 220.854 172.852C221.248 171.653 221.643 168.054 221.643 166.455C221.248 165.655 221.248 162.056 220.854 161.257ZM229.936 136.466C227.567 140.065 217.694 152.06 216.904 153.26C216.115 154.459 214.93 154.059 214.14 154.059C213.35 154.059 212.166 153.66 212.955 152.46C213.745 151.26 220.064 138.465 222.433 134.867C223.618 133.267 225.592 132.068 227.962 132.867C230.726 133.267 231.516 134.467 229.936 136.466Z"
      fill="#910F3A"/>
  <path
      d="M371.707 82.4866C371.707 82.4866 263.108 127.27 262.713 127.67C257.58 130.069 253.236 137.266 253.236 143.264V421.958C253.236 427.556 256.79 430.355 261.924 428.356C261.924 428.356 370.522 383.573 370.917 383.173C376.051 380.374 380 373.577 380 367.979V88.8842C380 83.6862 376.446 80.8872 371.707 82.4866ZM319.185 124.871C323.529 123.271 325.898 124.471 325.898 126.87C325.898 132.068 321.554 150.461 321.554 152.46C321.159 154.06 320.369 154.459 319.185 154.859C318 155.259 316.815 155.659 316.815 154.06C316.42 152.46 312.076 136.866 312.076 131.668C311.682 128.869 314.051 126.47 319.185 124.871ZM318.79 166.055C323.924 163.256 328.268 166.055 328.268 172.453C328.268 178.45 323.924 185.648 318.79 188.447C313.656 191.245 309.312 188.447 309.312 182.049C309.312 175.651 313.656 168.854 318.79 166.055ZM339.325 253.622C334.586 253.622 325.108 256.021 318.79 258.82C312.076 261.619 302.994 266.817 298.255 270.815C300.229 266.017 300.229 260.02 298.255 256.821C302.994 256.821 312.471 255.221 318.79 252.422C325.503 249.623 334.586 244.026 339.325 240.027C337.35 244.425 337.35 250.423 339.325 253.622ZM325.898 281.211C325.898 286.41 321.554 305.202 321.554 306.802C321.159 308.401 320.369 308.801 319.185 309.201C318 309.601 316.815 310.4 316.815 308.801C316.42 307.202 312.076 291.608 312.076 286.809C312.076 284.01 314.446 281.611 319.185 279.612C323.529 278.013 325.898 278.812 325.898 281.211ZM311.682 228.032C311.682 222.834 316.025 204.041 316.42 202.041C316.815 200.442 317.605 200.042 318.79 199.642C319.975 199.242 321.159 198.843 321.159 200.042C321.554 201.642 325.503 217.236 325.503 222.034C325.503 224.433 323.134 227.232 318.79 228.831C314.051 231.23 311.682 230.831 311.682 228.032ZM287.987 154.06C290.357 151.66 292.331 151.261 293.516 152.06C295.885 154.06 302.204 162.456 302.994 163.256C303.783 164.056 302.204 164.855 301.809 165.655C301.019 166.055 299.834 167.255 299.045 166.855C298.255 166.455 288.382 161.257 286.013 159.258C284.828 158.458 285.223 156.459 287.987 154.06ZM294.701 191.245C295.096 192.045 293.121 193.245 293.121 193.245C292.331 194.044 289.962 195.644 289.172 196.444C288.382 196.843 286.803 198.043 287.592 195.244C288.382 191.245 288.382 186.847 288.382 186.847C288.382 186.847 288.382 182.849 287.592 179.25C287.197 177.251 288.382 176.851 289.172 176.851C289.962 176.851 292.331 176.851 293.121 176.851C293.121 176.851 295.096 176.851 294.701 178.05C293.911 180.05 293.911 183.648 293.911 185.248C293.911 186.447 293.911 190.046 294.701 191.245ZM286.013 219.235C288.382 215.636 298.255 202.841 299.045 202.041C299.834 200.842 301.019 201.242 301.809 201.242C302.599 201.242 303.783 201.642 302.994 202.841C302.204 204.041 295.885 217.236 293.516 220.834C292.331 222.834 290.357 223.633 287.987 223.233C285.223 222.434 284.828 221.234 286.013 219.235ZM302.994 358.782C302.204 359.982 295.885 373.577 293.516 377.575C292.331 379.574 290.357 380.774 287.987 380.374C285.223 379.974 284.828 378.775 286.013 376.775C288.382 372.777 298.255 359.582 299.045 358.382C299.834 357.183 301.019 357.583 301.809 357.583C302.599 357.583 303.783 357.583 302.994 358.782ZM287.592 337.19C287.197 335.191 288.382 334.791 289.172 334.791C289.962 334.791 292.331 334.791 293.121 334.791C293.121 334.791 295.096 334.391 294.701 335.991C293.911 336.79 293.911 340.789 293.911 341.989C293.911 343.188 293.911 347.187 294.701 347.986C295.096 348.786 293.121 350.385 293.121 350.385C292.331 351.185 289.962 353.184 289.172 353.984C288.382 354.784 286.803 355.583 287.592 353.184C288.382 349.186 288.382 344.787 288.382 344.787C288.382 344.787 288.382 340.389 287.592 337.19ZM301.809 321.996C301.019 322.796 299.834 323.995 299.045 323.595C298.255 323.196 288.382 318.797 286.013 317.198C284.828 316.398 285.223 314.399 287.987 311.6C290.357 309.201 292.331 308.401 293.516 309.201C295.885 311.2 302.204 318.797 302.994 319.597C303.783 320.397 302.599 321.596 301.809 321.996ZM319.185 384.372C314.051 386.772 312.076 386.372 312.076 383.573C312.076 378.375 316.42 359.182 316.815 357.583C317.21 355.983 318 355.583 319.185 354.784C320.369 354.384 321.554 353.584 321.554 355.184C321.949 356.783 325.898 371.977 325.898 376.775C325.898 379.574 323.529 382.373 319.185 384.372ZM318.79 342.388C313.656 345.187 309.312 342.388 309.312 336.391C309.312 330.393 313.656 323.196 318.79 320.797C323.924 317.998 328.268 320.797 328.268 326.794C328.268 332.792 323.924 339.989 318.79 342.388ZM349.592 351.585C347.223 353.984 345.248 354.784 344.064 353.984C341.694 352.385 335.376 344.787 334.586 343.988C333.796 343.188 335.376 341.988 335.771 341.589C336.561 340.789 337.745 339.589 338.535 339.989C339.325 340.389 349.197 344.388 351.567 345.987C352.752 347.187 352.357 348.786 349.592 351.585ZM342.484 314.399C342.089 313.599 344.064 312 344.064 312C344.854 311.2 347.223 309.201 348.013 308.801C348.803 308.001 350.382 307.202 349.592 309.601C348.803 313.599 348.803 317.598 348.803 317.598C348.803 317.598 348.803 321.996 349.592 324.795C350.382 326.794 348.803 327.194 348.013 327.194C347.223 327.194 344.854 327.194 344.064 327.594C344.064 327.594 342.089 327.994 342.484 326.794C342.879 325.595 343.274 321.996 343.274 320.397C342.879 318.797 342.879 315.199 342.484 314.399ZM351.567 288.409C349.197 292.407 339.325 305.202 338.535 306.402C337.745 307.602 336.561 307.202 335.771 307.202C334.981 307.202 333.796 307.202 334.586 306.002C335.376 304.803 341.694 291.608 344.064 287.609C345.248 285.61 347.223 284.81 349.592 284.81C352.357 285.21 352.752 286.41 351.567 288.409ZM349.592 199.242C347.223 201.642 345.248 202.041 344.064 201.242C341.694 199.242 335.376 191.245 334.586 190.446C333.796 189.646 335.376 188.846 335.771 188.047C336.561 187.647 337.745 186.047 338.535 186.847C339.325 187.247 349.197 192.045 351.567 194.044C352.752 195.244 352.357 196.843 349.592 199.242ZM342.484 161.257C342.089 160.457 344.064 159.258 344.064 159.258C344.854 158.458 347.223 156.858 348.013 156.059C348.803 155.659 350.382 154.459 349.592 156.858C348.803 160.457 348.803 164.456 348.803 164.456C348.803 164.456 348.803 168.854 349.592 172.053C350.382 174.052 348.803 174.052 348.013 174.052C347.223 174.052 344.854 174.052 344.064 174.052C344.064 174.052 342.089 174.052 342.484 172.852C342.879 171.653 343.274 168.054 343.274 166.455C342.879 165.655 342.879 162.057 342.484 161.257ZM351.567 136.466C349.197 140.065 339.325 152.06 338.535 153.26C337.745 154.459 336.561 154.06 335.771 154.06C334.981 154.06 333.796 153.66 334.586 152.46C335.376 151.261 341.694 138.465 344.064 134.867C345.248 133.267 347.223 132.068 349.592 132.868C352.357 133.267 352.752 134.467 351.567 136.466Z"
      fill="#910F3A"/>
  <path
      d="M237.784 235.657C235.862 227.694 230.575 219.731 226.73 215.87C225.047 214.181 224.326 214.422 222.884 214.663C207.985 215.629 194.767 216.835 182.03 218.042C182.27 209.596 182.751 201.874 183.472 195.359C183.712 192.222 183.953 190.292 186.356 186.914C187.798 184.742 188.038 184.501 187.317 183.053C184.914 178.951 181.069 174.848 177.704 172.435C176.022 171.229 175.301 171.229 173.619 171.47C169.774 171.711 157.277 175.09 152.951 177.02C150.548 177.985 150.548 178.709 152.951 179.916C160.161 183.294 163.766 186.914 164.246 191.257C164.967 200.185 165.208 209.837 165.208 219.972C151.75 221.661 138.532 223.592 124.113 225.763C123.152 226.005 122.431 225.763 122.19 225.04C121.95 224.074 121.95 222.868 121.95 221.42C122.19 219.972 121.71 219.972 120.508 220.455C117.624 221.42 110.415 223.833 106.329 226.487C104.647 227.453 104.647 227.935 105.849 229.624C109.213 234.692 110.895 241.931 111.857 248.929C112.097 250.135 113.058 250.618 114.26 250.135C120.028 247.239 122.671 246.516 132.524 244.344C142.618 241.931 153.432 240.242 164.727 238.794C164.246 245.068 163.766 251.342 163.045 257.133C162.804 260.27 162.804 260.27 164.727 261.718C165.448 262.2 167.851 263.407 170.014 264.613C160.642 265.579 151.75 267.026 144.54 268.233C143.579 268.474 143.098 268.233 142.858 267.992C141.897 266.302 141.176 265.096 140.455 264.855C139.493 264.613 131.563 263.648 130.361 263.648C129.4 263.648 129.16 263.648 129.64 265.096C131.803 270.887 132.284 279.333 132.044 286.089C132.044 287.055 131.803 287.779 133.005 288.261C134.206 288.985 138.772 290.674 141.416 291.157C142.137 291.398 142.377 291.398 142.858 290.915C143.579 290.192 144.3 288.261 144.78 288.02C161.843 282.229 201.015 280.298 216.876 282.952C218.799 283.194 219.039 282.952 218.559 280.539C217.597 276.196 213.993 267.75 210.868 263.889C209.667 262.2 209.186 262.2 207.504 262.2C200.054 262.2 191.162 262.683 182.511 263.407C182.751 263.166 182.751 263.166 182.991 262.924C183.472 262.2 183.712 262.2 183.232 257.374C182.751 250.859 182.511 244.103 182.27 237.346C193.325 236.622 204.62 236.14 216.155 236.14C222.644 236.14 231.055 237.105 236.102 238.07C237.784 238.311 238.505 237.829 237.784 235.657Z"
      fill="white"/>
  <path
      d="M403.124 225.04C402.163 223.833 402.163 223.35 400.721 223.592C395.674 224.316 386.783 224.798 379.333 224.316C379.813 223.833 380.294 223.35 380.534 223.109C381.495 222.144 384.139 222.385 385.581 222.144C386.783 221.903 387.023 221.903 387.023 220.455C387.023 217.559 386.542 213.457 386.062 211.527C385.341 209.113 385.1 209.113 383.658 208.39C381.976 207.666 378.612 206.459 374.286 205.253C377.41 202.84 379.813 200.668 381.736 199.22C385.341 199.944 392.07 200.427 394.713 200.185C396.155 199.944 396.395 199.944 396.155 198.014C395.915 194.394 393.752 188.361 392.31 186.19C391.349 184.742 391.349 184.742 390.147 184.742C385.341 184.742 379.092 184.5 372.604 183.777C372.844 183.535 373.084 183.535 373.325 183.294C375.247 182.087 375.728 181.605 378.371 181.605C380.054 181.605 380.294 181.364 380.294 179.674C380.294 176.055 379.573 171.953 378.612 169.54C377.891 167.368 377.891 167.127 376.208 166.403C373.805 164.955 361.789 162.301 356.983 162.059C355.06 161.818 354.58 162.301 355.781 163.748C356.743 165.438 359.626 169.54 360.107 171.953C360.347 172.918 360.347 174.124 359.146 175.09C353.859 179.916 344.486 187.155 335.835 192.222C334.152 193.187 333.672 193.187 331.749 193.187C328.625 192.946 322.617 190.533 319.253 187.637C317.811 186.431 317.09 186.672 316.849 188.603C316.609 191.74 317.09 197.772 318.532 202.357C319.012 204.046 319.253 204.529 320.695 205.977C324.059 209.355 329.106 211.044 334.633 211.527C336.556 211.768 337.036 211.768 338.478 210.561C339.44 209.837 340.401 208.872 341.362 207.907C342.564 208.631 343.765 209.355 345.207 210.32C342.083 212.733 338.478 215.387 335.114 218.042C333.912 219.007 331.269 219.49 329.346 219.731C323.819 220.213 316.849 219.49 311.322 217.8C309.64 217.318 309.64 217.559 309.88 219.49C310.841 223.35 313.245 228.9 315.648 231.555C316.849 233.003 317.811 233.726 319.493 234.692C323.098 236.622 328.385 237.829 332.711 237.829C335.114 237.829 335.835 237.829 337.757 236.139C345.688 229.383 356.502 220.213 365.394 212.492C365.634 213.216 366.115 213.94 366.115 214.422C366.355 215.387 366.596 215.629 365.394 216.835C359.867 221.903 347.61 232.761 337.998 240.242C336.315 241.448 335.835 241.448 334.152 241.448C329.106 241.448 322.857 240.242 319.012 237.829C317.33 236.863 317.09 237.105 316.849 239.035C316.609 242.172 317.811 248.687 319.493 252.066C320.214 253.755 320.454 254.237 321.896 255.444C325.02 258.098 331.509 260.511 336.315 260.994C338.238 261.235 338.719 261.476 340.401 260.029C343.525 257.133 346.889 254.237 350.254 251.1C351.696 251.824 353.378 252.789 355.06 253.513C348.572 259.546 341.362 266.061 334.873 271.611C331.749 274.265 330.548 274.024 326.943 274.265C319.733 274.507 308.438 272.335 300.267 269.198C298.585 268.474 298.105 268.715 298.585 271.37C299.066 275.472 302.43 283.918 306.756 289.226C308.438 290.915 310.121 292.122 311.322 292.846C317.811 296.224 326.462 297.672 335.354 297.431C337.757 297.431 338.478 297.189 341.122 293.811C351.456 281.987 361.068 272.094 369.479 263.407C376.449 268.715 384.139 275.231 392.55 281.987C394.473 283.676 395.915 283.676 396.155 281.263C396.636 275.231 395.434 264.372 393.752 258.822C393.031 256.409 392.79 256.168 391.108 255.202C388.465 253.755 385.581 252.307 382.457 250.618C386.302 246.998 389.666 244.103 392.79 241.207C395.194 241.689 400.961 242.413 404.086 241.931C405.287 241.689 405.527 241.689 405.527 240.242C406.969 233.968 404.806 227.694 403.124 225.04ZM351.936 198.737C354.58 196.566 357.464 194.394 360.107 192.222C361.549 192.705 363.472 193.187 364.913 193.67C362.991 195.359 360.107 197.772 356.743 200.668C355.06 199.944 353.378 199.461 351.936 198.737ZM362.991 239.759C365.394 237.587 367.557 235.657 369.479 233.726C371.162 234.45 372.844 235.174 374.526 235.657C372.844 237.105 370.441 239.518 367.797 242.172C366.115 241.207 364.673 240.483 362.991 239.759Z"
      fill="white"/>
  <path
      d="M138.772 349.793L138.052 342.796C138.052 342.313 138.052 342.072 138.292 341.83L147.664 333.385H139.734C139.253 333.385 139.013 333.143 139.013 332.661L138.292 325.904C138.292 325.422 138.532 325.18 139.013 325.18H160.642C161.122 325.18 161.363 325.422 161.363 325.904L160.642 333.385L149.827 341.589H160.882C161.363 341.589 161.603 341.83 161.603 342.313L160.882 349.552C160.882 350.035 160.642 350.276 160.161 350.276H139.734C139.013 350.517 138.772 350.276 138.772 349.793Z"
      fill="white"/>
  <path
      d="M208.465 345.209L209.186 349.794C209.186 350.276 208.946 350.518 208.465 350.518H198.372C197.891 350.518 197.651 350.276 197.651 349.794L198.372 345.209V333.626H192.844C192.364 333.626 192.123 333.385 192.123 332.902L191.403 326.146C191.403 325.663 191.643 325.422 192.123 325.422H214.473C214.954 325.422 215.194 325.663 215.194 326.146L214.473 332.902C214.473 333.385 214.233 333.626 213.752 333.626H208.465V345.209Z"
      fill="white"/>
  <path
      d="M258.452 324.939C268.305 324.939 271.91 330.489 271.91 337.97C271.91 346.174 267.824 351 258.452 351C249.56 351 245.234 346.415 245.234 337.97C245.234 330.489 249.079 324.939 258.452 324.939ZM258.452 342.072C261.576 342.072 262.537 341.107 262.537 337.97C262.537 334.833 261.816 333.867 258.452 333.867C255.808 333.867 254.366 335.074 254.366 337.97C254.607 340.865 255.808 342.072 258.452 342.072Z"
      fill="white"/>
  <path
      d="M302.911 349.794L303.632 345.692V330.972L302.911 326.146C302.911 325.663 303.151 325.422 303.632 325.422H318.291C325.02 325.422 327.664 328.559 327.664 334.592C327.664 338.935 326.462 340.624 324.299 341.831L326.222 345.692L329.106 349.794C329.346 350.276 329.346 350.518 328.625 350.518H319.253C318.772 350.518 318.532 350.276 318.532 350.035L316.369 343.037H313.004V349.794C313.004 350.276 312.764 350.518 312.283 350.518H303.632C303.151 350.518 302.671 350.035 302.911 349.794ZM312.764 337.005H315.407C317.57 337.005 317.57 336.039 317.57 334.592C317.57 333.385 317.57 332.42 315.648 332.42H312.764V337.005Z"
      fill="white"/>
  <path
      d="M359.867 349.552L360.588 345.45V330.248L359.867 325.904C359.867 325.422 360.107 325.18 360.588 325.18H381.015C381.495 325.18 381.736 325.422 381.736 325.904L381.015 331.696C381.015 332.178 380.774 332.42 380.294 332.42H368.758V334.591H380.053C380.534 334.591 380.774 334.833 380.774 335.315L380.534 340.141C380.534 340.624 380.294 340.865 379.813 340.865H368.999V343.037H380.774C381.255 343.037 381.495 343.278 381.495 343.761L382.216 349.552C382.216 350.035 381.976 350.276 381.495 350.276H360.828C359.867 350.517 359.626 350.035 359.867 349.552Z"
      fill="white"/>
</svg>
